<svg width="24" height="24" viewBox="0 0 24 24" fill="none" xmlns="http://www.w3.org/2000/svg">
<path d="M17.9538 6.04688C19.1711 6.26578 20.1696 6.92203 20.95 8.01562C21.6368 8.98453 22.105 10.2033 22.3544 11.6719C22.5733 13.0158 22.5569 14.3592 22.3075 15.7031C21.933 17.9217 21.184 19.7812 20.0604 21.2812C18.7179 23.0939 17.0327 24 15.004 24C14.5043 24 13.9586 23.8439 13.3652 23.5312C12.9593 23.2814 12.5069 23.1562 12.0072 23.1562C11.5076 23.1562 11.0557 23.2814 10.6493 23.5312C10.0558 23.8439 9.51021 24 9.01052 24C6.98177 24 5.29661 23.0939 3.95411 21.2812C2.83052 19.7812 2.08146 17.9217 1.70692 15.7031C1.45755 14.3592 1.44114 13.0158 1.66005 11.6719C1.90942 10.2033 2.37771 8.98453 3.06442 8.01562C3.84489 6.92203 4.84333 6.26578 6.06067 6.04688C6.80974 5.92172 7.83958 6.03141 9.15067 6.375C10.2743 6.68766 11.2263 7.06266 12.0068 7.5C12.7872 7.06266 13.7393 6.68766 14.8629 6.375C16.1744 6.03141 17.2047 5.92172 17.9538 6.04688ZM15.3785 4.125C14.9416 4.53141 14.3636 4.82812 13.646 5.01562C13.1463 5.17172 12.6007 5.25 12.0072 5.25L11.305 5.20312C11.2427 4.76578 11.2427 4.26562 11.305 3.70312C11.4302 2.57812 11.7888 1.71891 12.3818 1.125C12.8186 0.718594 13.3966 0.421875 14.1143 0.234375C14.614 0.0782813 15.1596 0 15.753 0L16.4552 0.046875L16.5021 0.75C16.5021 1.34391 16.4238 1.89047 16.2682 2.39062C16.0811 3.10922 15.7849 3.68766 15.3785 4.125Z" fill="#0A4D1E" fill-opacity="0.99"/>
</svg>
