<svg width="22" height="24" viewBox="0 0 22 24" fill="none" xmlns="http://www.w3.org/2000/svg">
<path d="M0.5 21.75C0.5 22.9922 1.50781 24 2.75 24H19.25C20.4922 24 21.5 22.9922 21.5 21.75V9H0.5V21.75ZM15.5 12.5625C15.5 12.2531 15.7531 12 16.0625 12H17.9375C18.2469 12 18.5 12.2531 18.5 12.5625V14.4375C18.5 14.7469 18.2469 15 17.9375 15H16.0625C15.7531 15 15.5 14.7469 15.5 14.4375V12.5625ZM15.5 18.5625C15.5 18.2531 15.7531 18 16.0625 18H17.9375C18.2469 18 18.5 18.2531 18.5 18.5625V20.4375C18.5 20.7469 18.2469 21 17.9375 21H16.0625C15.7531 21 15.5 20.7469 15.5 20.4375V18.5625ZM9.5 12.5625C9.5 12.2531 9.75313 12 10.0625 12H11.9375C12.2469 12 12.5 12.2531 12.5 12.5625V14.4375C12.5 14.7469 12.2469 15 11.9375 15H10.0625C9.75313 15 9.5 14.7469 9.5 14.4375V12.5625ZM9.5 18.5625C9.5 18.2531 9.75313 18 10.0625 18H11.9375C12.2469 18 12.5 18.2531 12.5 18.5625V20.4375C12.5 20.7469 12.2469 21 11.9375 21H10.0625C9.75313 21 9.5 20.7469 9.5 20.4375V18.5625ZM3.5 12.5625C3.5 12.2531 3.75312 12 4.0625 12H5.9375C6.24687 12 6.5 12.2531 6.5 12.5625V14.4375C6.5 14.7469 6.24687 15 5.9375 15H4.0625C3.75312 15 3.5 14.7469 3.5 14.4375V12.5625ZM3.5 18.5625C3.5 18.2531 3.75312 18 4.0625 18H5.9375C6.24687 18 6.5 18.2531 6.5 18.5625V20.4375C6.5 20.7469 6.24687 21 5.9375 21H4.0625C3.75312 21 3.5 20.7469 3.5 20.4375V18.5625ZM19.25 3H17V0.75C17 0.3375 16.6625 0 16.25 0H14.75C14.3375 0 14 0.3375 14 0.75V3H8V0.75C8 0.3375 7.6625 0 7.25 0H5.75C5.3375 0 5 0.3375 5 0.75V3H2.75C1.50781 3 0.5 4.00781 0.5 5.25V7.5H21.5V5.25C21.5 4.00781 20.4922 3 19.25 3Z" fill="#0A4D1E" fill-opacity="0.99"/>
</svg>
