<svg width="20" height="21" viewBox="0 0 20 21" fill="none" xmlns="http://www.w3.org/2000/svg">
<g clip-path="url(#clip0_98_50)">
<path d="M19.531 7.375H17.1923L16.5423 5.75C15.8743 4.0793 14.2802 3 12.4806 3H7.51963C5.72041 3 4.12588 4.0793 3.45752 5.75L2.80752 7.375H0.469243C0.164165 7.375 -0.0596635 7.66172 0.0145552 7.95742L0.24893 8.89492C0.300883 9.10352 0.488383 9.25 0.703618 9.25H1.4876C0.962993 9.7082 0.625102 10.3742 0.625102 11.125V13C0.625102 13.6297 0.865727 14.198 1.2501 14.6379V16.75C1.2501 17.4402 1.80987 18 2.5001 18H3.7501C4.44034 18 5.0001 17.4402 5.0001 16.75V15.5H15.0001V16.75C15.0001 17.4402 15.5599 18 16.2501 18H17.5001C18.1903 18 18.7501 17.4402 18.7501 16.75V14.6379C19.1345 14.1984 19.3751 13.6301 19.3751 13V11.125C19.3751 10.3742 19.0372 9.7082 18.513 9.25H19.297C19.5122 9.25 19.6997 9.10352 19.7517 8.89492L19.986 7.95742C20.0599 7.66172 19.836 7.375 19.531 7.375ZM5.77862 6.67852C6.06338 5.9668 6.75284 5.5 7.51963 5.5H12.4806C13.2474 5.5 13.9368 5.9668 14.2216 6.67852L15.0001 8.625H5.0001L5.77862 6.67852ZM3.7501 12.9922C3.0001 12.9922 2.5001 12.4937 2.5001 11.7461C2.5001 10.9984 3.0001 10.5 3.7501 10.5C4.5001 10.5 5.6251 11.6215 5.6251 12.3691C5.6251 13.1168 4.5001 12.9922 3.7501 12.9922ZM16.2501 12.9922C15.5001 12.9922 14.3751 13.1168 14.3751 12.3691C14.3751 11.6215 15.5001 10.5 16.2501 10.5C17.0001 10.5 17.5001 10.9984 17.5001 11.7461C17.5001 12.4937 17.0001 12.9922 16.2501 12.9922Z" fill="#0A4D1E" fill-opacity="0.99"/>
</g>
<defs>
<clipPath id="clip0_98_50">
<rect width="20" height="20" fill="white" transform="translate(0 0.5)"/>
</clipPath>
</defs>
</svg>
