<svg width="20" height="21" viewBox="0 0 20 21" fill="none" xmlns="http://www.w3.org/2000/svg">
<path d="M5.65625 1.16415C5.21484 0.468837 4.20312 0.273525 3.54688 0.796962C1.37891 2.52743 0 5.10946 0 8.00009H10L5.65625 1.16415ZM19.375 4.25009H17.5C16.1211 4.25009 15 5.37118 15 6.75009V9.25009H0C0 11.2267 0.898438 13.0157 2.35547 14.3556C1.00391 14.7032 0 15.9181 0 17.3751C0 19.1017 1.39844 20.5001 3.125 20.5001C4.85156 20.5001 6.25 19.1017 6.25 17.3751C6.25 17.0274 6.17969 16.7032 6.07812 16.3907C6.92188 16.6212 7.82031 16.7501 8.75 16.7501C9.67969 16.7501 10.582 16.6212 11.4219 16.3907C11.3164 16.7032 11.25 17.0274 11.25 17.3751C11.25 19.1017 12.6484 20.5001 14.375 20.5001C16.1016 20.5001 17.5 19.1017 17.5 17.3751C17.5 15.9181 16.4961 14.7032 15.1445 14.3556C16.6016 13.0157 17.5 11.2267 17.5 9.25009V6.75009H19.375C19.7188 6.75009 20 6.46884 20 6.12509V4.87509C20 4.53134 19.7188 4.25009 19.375 4.25009ZM3.125 18.6251C2.4375 18.6251 1.875 18.0626 1.875 17.3751C1.875 16.6876 2.4375 16.1251 3.125 16.1251C3.8125 16.1251 4.375 16.6876 4.375 17.3751C4.375 18.0626 3.8125 18.6251 3.125 18.6251ZM15.625 17.3751C15.625 18.0626 15.0625 18.6251 14.375 18.6251C13.6875 18.6251 13.125 18.0626 13.125 17.3751C13.125 16.6876 13.6875 16.1251 14.375 16.1251C15.0625 16.1251 15.625 16.6876 15.625 17.3751Z" fill="#0A4D1E" fill-opacity="0.99"/>
</svg>
