<svg width="20" height="17" viewBox="0 0 20 17" fill="none" xmlns="http://www.w3.org/2000/svg">
<path d="M15.5 8.5C15.775 8.5 16 8.275 16 8C16 7.725 15.775 7.5 15.5 7.5C15.225 7.5 15 7.725 15 8C15 8.275 15.225 8.5 15.5 8.5ZM10 6C11.5156 6 12.75 4.76562 12.75 3.25C12.75 1.73438 11.5156 0.5 10 0.5C8.48438 0.5 7.25 1.73438 7.25 3.25C7.25 4.76562 8.48438 6 10 6ZM1.86875 11.875C2.1875 12.3531 2.78437 12.4312 3.20937 12.1812C3.71562 11.8812 4.96562 11.1906 6.5 10.6625V13.5H13.5V10.6656C15.0344 11.1906 16.2844 11.8844 16.7906 12.1844C17.2156 12.4344 17.8125 12.35 18.1313 11.8781L18.6875 11.0437C18.9625 10.6312 18.925 9.9625 18.375 9.63437C18.0031 9.4125 17.4469 9.10312 16.7781 8.77812C15.9 10.2188 13.6719 9.33438 14.0375 7.68125C12.7906 7.2875 11.4094 7 10 7C8.21875 7 6.47188 7.45312 5 8.00625C4.99375 9.2625 3.5125 9.98438 2.525 9.13125C2.175 9.31875 1.85938 9.49375 1.62812 9.63125C1.07812 9.95938 1.04062 10.625 1.31562 11.0406L1.86875 11.875ZM11.5 11.25C11.9156 11.25 12.25 11.5844 12.25 12C12.25 12.4156 11.9156 12.75 11.5 12.75C11.0844 12.75 10.75 12.4156 10.75 12C10.75 11.5844 11.0844 11.25 11.5 11.25ZM8.5 8.25C8.91562 8.25 9.25 8.58438 9.25 9C9.25 9.41562 8.91562 9.75 8.5 9.75C8.08438 9.75 7.75 9.41562 7.75 9C7.75 8.58438 8.08438 8.25 8.5 8.25ZM3.5 8.5C3.775 8.5 4 8.275 4 8C4 7.725 3.775 7.5 3.5 7.5C3.225 7.5 3 7.725 3 8C3 8.275 3.225 8.5 3.5 8.5ZM19.5 14.5H0.5C0.225 14.5 0 14.725 0 15V16C0 16.275 0.225 16.5 0.5 16.5H19.5C19.775 16.5 20 16.275 20 16V15C20 14.725 19.775 14.5 19.5 14.5Z" fill="#0A4D1E" fill-opacity="0.99"/>
</svg>
