<svg width="24" height="29" viewBox="0 0 24 29" fill="none" xmlns="http://www.w3.org/2000/svg">
<path d="M7.55131 7.26315C7.65131 8.65753 6.45443 8.61253 6.20068 8.61253C1.89256 8.61253 1.59818 8.55003 0.976934 8.82128C0.941934 8.83503 0.930684 8.82128 0.953809 8.79815L7.73693 1.90315C7.76068 1.88003 7.77443 1.8894 7.76068 1.92628C7.48881 2.55065 7.55131 2.8694 7.55131 7.26315ZM12.4888 26.5132C11.5713 24.1957 13.3013 21.705 15.7713 21.7244C16.8644 21.7244 17.1838 23.175 16.2682 23.6882C15.8813 23.8944 14.7088 23.7969 14.6969 24.8882C14.6938 25.9563 15.9263 26.4507 16.6469 26.4438C17.0216 26.4439 17.3927 26.3701 17.7389 26.2268C18.0851 26.0834 18.3996 25.8733 18.6646 25.6083C18.9295 25.3433 19.1397 25.0288 19.283 24.6826C19.4264 24.3364 19.5001 23.9654 19.5001 23.5907V23.5857C19.5001 22.8588 19.0132 20.6344 16.5288 20.1269C16.0463 20.0307 12.4663 19.73 12.2569 16.9694C12.0232 18.0275 11.1694 20.9375 9.56256 21.2875C9.01631 21.4088 5.20756 21.765 2.50506 18.9894C2.50506 18.9894 1.34443 18.0375 0.740684 15.3675C0.529434 14.3832 0.160684 12.8863 0.0444336 11.4925C0.0444336 10.3675 0.740684 9.5894 1.61131 9.48003C6.67381 9.48003 7.23631 9.62503 7.92381 8.99253C8.53756 8.41503 8.41131 8.02378 8.41131 2.56878C8.47381 2.05003 8.89818 0.643154 11.7494 1.06003C12.1244 1.11378 13.7438 1.32128 14.0919 2.97503L18.1082 3.6719C19.3851 3.90378 22.5419 4.1094 23.1457 7.29315C24.5619 14.8613 23.7026 22.1969 23.6332 22.1969C22.6344 29.3457 16.6913 29 16.6913 29C15.5069 28.9857 13.3007 28.4125 12.4869 26.5107L12.4888 26.5132ZM17.5476 13.7107C17.4851 13.8307 17.4101 14.0857 17.6007 14.1482C18.4813 14.4563 20.0851 14.5757 20.4682 14.4938C20.6626 14.4782 20.6588 14.2169 20.6232 14.0782C20.4026 12.7125 18.0713 12.4219 17.5457 13.7082L17.5476 13.7107Z" fill="#E27637"/>
</svg>
