<svg width="24" height="24" viewBox="0 0 24 24" fill="none" xmlns="http://www.w3.org/2000/svg">
<path d="M8.66727 6.19737C8.74227 7.24315 7.84461 7.2094 7.6543 7.2094C4.4232 7.2094 4.20242 7.16252 3.73648 7.36596C3.71023 7.37627 3.7018 7.36596 3.71914 7.34862L8.80648 2.17737C8.8243 2.16002 8.83461 2.16705 8.8243 2.19471C8.62039 2.66299 8.66727 2.90205 8.66727 6.19737ZM12.3704 20.6349C11.6823 18.8967 12.9798 17.0288 14.8323 17.0433C15.6521 17.0433 15.8916 18.1313 15.2049 18.5161C14.9148 18.6708 14.0354 18.5977 14.0265 19.4161C14.0241 20.2172 14.9485 20.588 15.489 20.5828C15.77 20.5829 16.0483 20.5276 16.3079 20.4201C16.5676 20.3126 16.8035 20.1549 17.0022 19.9562C17.2009 19.7575 17.3586 19.5216 17.4661 19.2619C17.5736 19.0023 17.6289 18.724 17.6288 18.443V18.4392C17.6288 17.8941 17.2637 16.2258 15.4004 15.8452C15.0385 15.773 12.3535 15.5475 12.1965 13.4771C12.0212 14.2706 11.3809 16.4531 10.1757 16.7156C9.76602 16.8066 6.90945 17.0738 4.88258 14.9921C4.88258 14.9921 4.01211 14.2781 3.5593 12.2756C3.40086 11.5374 3.1243 10.4147 3.03711 9.3694C3.03711 8.52565 3.5593 7.94205 4.21227 7.86002C8.00914 7.86002 8.43102 7.96877 8.94664 7.4944C9.40695 7.06127 9.31227 6.76783 9.31227 2.67658C9.35914 2.28752 9.67742 1.23237 11.8159 1.54502C12.0971 1.58533 13.3116 1.74096 13.5727 2.98127L16.5849 3.50393C17.5426 3.67783 19.9102 3.83205 20.363 6.21986C21.4252 11.896 20.7807 17.3977 20.7287 17.3977C19.9796 22.7592 15.5223 22.5 15.5223 22.5C14.634 22.4892 12.9793 22.0594 12.369 20.633L12.3704 20.6349ZM16.1645 11.033C16.1176 11.123 16.0613 11.3142 16.2043 11.3611C16.8648 11.5922 18.0676 11.6817 18.3549 11.6203C18.5007 11.6086 18.4979 11.4127 18.4712 11.3086C18.3057 10.2844 16.5573 10.0664 16.163 11.0311L16.1645 11.033Z" fill="#0A4D1E" fill-opacity="0.99"/>
</svg>
