<svg width="32" height="32" viewBox="0 0 32 32" fill="none" xmlns="http://www.w3.org/2000/svg">
<path d="M11.5513 8.26315C11.6513 9.65753 10.4544 9.61253 10.2007 9.61253C5.89256 9.61253 5.59818 9.55003 4.97693 9.82128C4.94193 9.83503 4.93068 9.82128 4.95381 9.79815L11.7369 2.90315C11.7607 2.88003 11.7744 2.8894 11.7607 2.92628C11.4888 3.55065 11.5513 3.8694 11.5513 8.26315ZM16.4888 27.5132C15.5713 25.1957 17.3013 22.705 19.7713 22.7244C20.8644 22.7244 21.1838 24.175 20.2682 24.6882C19.8813 24.8944 18.7088 24.7969 18.6969 25.8882C18.6938 26.9563 19.9263 27.4507 20.6469 27.4438C21.0216 27.4439 21.3927 27.3701 21.7389 27.2268C22.0851 27.0834 22.3996 26.8733 22.6646 26.6083C22.9295 26.3433 23.1397 26.0288 23.283 25.6826C23.4264 25.3364 23.5001 24.9654 23.5001 24.5907V24.5857C23.5001 23.8588 23.0132 21.6344 20.5288 21.1269C20.0463 21.0307 16.4663 20.73 16.2569 17.9694C16.0232 19.0275 15.1694 21.9375 13.5626 22.2875C13.0163 22.4088 9.20756 22.765 6.50506 19.9894C6.50506 19.9894 5.34443 19.0375 4.74068 16.3675C4.52943 15.3832 4.16068 13.8863 4.04443 12.4925C4.04443 11.3675 4.74068 10.5894 5.61131 10.48C10.6738 10.48 11.2363 10.625 11.9238 9.99253C12.5376 9.41503 12.4113 9.02378 12.4113 3.56878C12.4738 3.05003 12.8982 1.64315 15.7494 2.06003C16.1244 2.11378 17.7438 2.32128 18.0919 3.97503L22.1082 4.6719C23.3851 4.90378 26.5419 5.1094 27.1457 8.29315C28.5619 15.8613 27.7026 23.1969 27.6332 23.1969C26.6344 30.3457 20.6913 30 20.6913 30C19.5069 29.9857 17.3007 29.4125 16.4869 27.5107L16.4888 27.5132ZM21.5476 14.7107C21.4851 14.8307 21.4101 15.0857 21.6007 15.1482C22.4813 15.4563 24.0851 15.5757 24.4682 15.4938C24.6626 15.4782 24.6588 15.2169 24.6232 15.0782C24.4026 13.7125 22.0713 13.4219 21.5457 14.7082L21.5476 14.7107Z" fill="#E27637"/>
</svg>
