<svg width="16" height="17" viewBox="0 0 16 17" fill="none" xmlns="http://www.w3.org/2000/svg">
<g opacity="0.7" clip-path="url(#clip0_251_2049)">
<path d="M7.78847 5.50723L2.66708 9.72529V14.2778C2.66708 14.3957 2.71391 14.5087 2.79726 14.5921C2.88061 14.6754 2.99365 14.7222 3.11153 14.7222L6.2243 14.7142C6.34179 14.7136 6.45427 14.6665 6.53714 14.5832C6.62001 14.4999 6.66653 14.3872 6.66653 14.2697V11.6111C6.66653 11.4932 6.71335 11.3802 6.7967 11.2968C6.88005 11.2135 6.9931 11.1667 7.11097 11.1667H8.88875C9.00662 11.1667 9.11967 11.2135 9.20302 11.2968C9.28637 11.3802 9.33319 11.4932 9.33319 11.6111V14.2678C9.33301 14.3263 9.34437 14.3842 9.36662 14.4383C9.38888 14.4924 9.42159 14.5415 9.46288 14.583C9.50416 14.6244 9.55322 14.6572 9.60723 14.6797C9.66125 14.7021 9.71916 14.7136 9.77764 14.7136L12.8893 14.7222C13.0072 14.7222 13.1202 14.6754 13.2036 14.5921C13.2869 14.5087 13.3337 14.3957 13.3337 14.2778V9.72223L8.21347 5.50723C8.15328 5.45871 8.07829 5.43225 8.00097 5.43225C7.92365 5.43225 7.84867 5.45871 7.78847 5.50723ZM15.8782 8.37417L13.556 6.46001V2.61251C13.556 2.5241 13.5209 2.43932 13.4583 2.37681C13.3958 2.31429 13.311 2.27917 13.2226 2.27917H11.6671C11.5787 2.27917 11.4939 2.31429 11.4314 2.37681C11.3689 2.43932 11.3337 2.5241 11.3337 2.61251V4.62945L8.8468 2.58334C8.60814 2.38695 8.30866 2.27957 7.99958 2.27957C7.6905 2.27957 7.39102 2.38695 7.15236 2.58334L0.120972 8.37417C0.0872184 8.40207 0.0592927 8.43635 0.0387905 8.47504C0.0182883 8.51374 0.00561132 8.55609 0.00148393 8.59969C-0.00264346 8.64328 0.00185963 8.68726 0.0147359 8.72912C0.0276122 8.77097 0.0486092 8.80988 0.0765274 8.84362L0.784861 9.70473C0.812703 9.73858 0.846949 9.76662 0.885638 9.78722C0.924327 9.80782 0.9667 9.82059 1.01033 9.8248C1.05396 9.829 1.09799 9.82456 1.13991 9.81173C1.18182 9.79889 1.22079 9.77792 1.25458 9.75001L7.78847 4.36834C7.84867 4.31982 7.92365 4.29336 8.00097 4.29336C8.07829 4.29336 8.15328 4.31982 8.21347 4.36834L14.7476 9.75001C14.7814 9.77793 14.8203 9.79892 14.8621 9.8118C14.904 9.82468 14.948 9.82918 14.9916 9.82505C15.0352 9.82092 15.0775 9.80825 15.1162 9.78774C15.1549 9.76724 15.1892 9.73932 15.2171 9.70556L15.9254 8.84445C15.9533 8.81052 15.9742 8.77141 15.9869 8.72937C15.9997 8.68734 16.004 8.6432 15.9996 8.5995C15.9952 8.55579 15.9822 8.51339 15.9614 8.47472C15.9405 8.43605 15.9123 8.40188 15.8782 8.37417Z" fill="#0A4D1E" fill-opacity="0.99"/>
</g>
<defs>
<clipPath id="clip0_251_2049">
<rect width="16" height="16" fill="white" transform="translate(0 0.5)"/>
</clipPath>
</defs>
</svg>
