<svg width="8" height="20" viewBox="0 0 8 20" fill="none" xmlns="http://www.w3.org/2000/svg">
<path d="M1.03125 16.5705H1.8125V10.9276H1.03125C0.599766 10.9276 0.25 10.5778 0.25 10.1463V8.28027C0.25 7.84879 0.599766 7.49902 1.03125 7.49902H5.40625C5.83773 7.49902 6.1875 7.84879 6.1875 8.28027V16.5705H6.96875C7.40023 16.5705 7.75 16.9202 7.75 17.3517V19.2178C7.75 19.6493 7.40023 19.999 6.96875 19.999H1.03125C0.599766 19.999 0.25 19.6493 0.25 19.2178V17.3517C0.25 16.9202 0.599766 16.5705 1.03125 16.5705ZM4 -0.000976562C2.44668 -0.000976562 1.1875 1.2582 1.1875 2.81152C1.1875 4.36484 2.44668 5.62402 4 5.62402C5.55332 5.62402 6.8125 4.36484 6.8125 2.81152C6.8125 1.2582 5.55328 -0.000976562 4 -0.000976562Z" fill="white"/>
</svg>
