<svg width="20" height="20" viewBox="0 0 20 20" fill="none" xmlns="http://www.w3.org/2000/svg">
<path d="M10.0029 5.50781C7.51855 5.50781 5.51465 7.51172 5.51465 9.99609C5.51465 12.4805 7.51855 14.4844 10.0029 14.4844C12.4873 14.4844 14.4912 12.4805 14.4912 9.99609C14.4912 7.51172 12.4873 5.50781 10.0029 5.50781ZM10.0029 12.9141C8.39746 12.9141 7.08496 11.6055 7.08496 9.99609C7.08496 8.38672 8.39355 7.07813 10.0029 7.07813C11.6123 7.07813 12.9209 8.38672 12.9209 9.99609C12.9209 11.6055 11.6084 12.9141 10.0029 12.9141ZM15.7217 5.32422C15.7217 5.90625 15.2529 6.37109 14.6748 6.37109C14.0928 6.37109 13.6279 5.90234 13.6279 5.32422C13.6279 4.74609 14.0967 4.27734 14.6748 4.27734C15.2529 4.27734 15.7217 4.74609 15.7217 5.32422ZM18.6943 6.38672C18.6279 4.98438 18.3076 3.74219 17.2803 2.71875C16.2568 1.69531 15.0146 1.375 13.6123 1.30469C12.167 1.22266 7.83496 1.22266 6.38965 1.30469C4.99121 1.37109 3.74902 1.69141 2.72168 2.71484C1.69434 3.73828 1.37793 4.98047 1.30762 6.38281C1.22559 7.82813 1.22559 12.1602 1.30762 13.6055C1.37402 15.0078 1.69434 16.25 2.72168 17.2734C3.74902 18.2969 4.9873 18.6172 6.38965 18.6875C7.83496 18.7695 12.167 18.7695 13.6123 18.6875C15.0146 18.6211 16.2568 18.3008 17.2803 17.2734C18.3037 16.25 18.624 15.0078 18.6943 13.6055C18.7764 12.1602 18.7764 7.83203 18.6943 6.38672ZM16.8271 15.1563C16.5225 15.9219 15.9326 16.5117 15.1631 16.8203C14.0107 17.2773 11.2764 17.1719 10.0029 17.1719C8.72949 17.1719 5.99121 17.2734 4.84277 16.8203C4.07715 16.5156 3.4873 15.9258 3.17871 15.1563C2.72168 14.0039 2.82715 11.2695 2.82715 9.99609C2.82715 8.72266 2.72559 5.98438 3.17871 4.83594C3.4834 4.07031 4.07324 3.48047 4.84277 3.17188C5.99512 2.71484 8.72949 2.82031 10.0029 2.82031C11.2764 2.82031 14.0146 2.71875 15.1631 3.17188C15.9287 3.47656 16.5186 4.06641 16.8271 4.83594C17.2842 5.98828 17.1787 8.72266 17.1787 9.99609C17.1787 11.2695 17.2842 14.0078 16.8271 15.1563Z" fill="white"/>
</svg>
