<svg width="20" height="20" viewBox="0 0 20 20" fill="none" xmlns="http://www.w3.org/2000/svg">
<path d="M5.16719 17.5H1.53906V5.8164H5.16719V17.5ZM3.35117 4.22265C2.19102 4.22265 1.25 3.26172 1.25 2.10156C1.25 1.5443 1.47137 1.00985 1.86542 0.615808C2.25947 0.221762 2.79391 0.000389099 3.35117 0.000389099C3.90844 0.000389099 4.44288 0.221762 4.83692 0.615808C5.23097 1.00985 5.45234 1.5443 5.45234 2.10156C5.45234 3.26172 4.51094 4.22265 3.35117 4.22265ZM18.7461 17.5H15.1258V11.8125C15.1258 10.457 15.0984 8.71875 13.2395 8.71875C11.3531 8.71875 11.0641 10.1914 11.0641 11.7148V17.5H7.43984V5.8164H10.9195V7.41015H10.9703C11.4547 6.49219 12.6379 5.52344 14.4031 5.52344C18.075 5.52344 18.75 7.9414 18.75 11.082V17.5H18.7461Z" fill="white"/>
</svg>
