<svg width="24" height="24" viewBox="0 0 24 24" fill="none" xmlns="http://www.w3.org/2000/svg">
<g clip-path="url(#clip0_38_290)">
<path d="M0.00390625 6.23585V20.6659C0.00390625 21.1375 0.480156 21.46 0.918073 21.285L6.67057 18.6667V2.66669L0.84224 4.99794C0.594814 5.0969 0.382711 5.26772 0.233285 5.48837C0.0838598 5.70902 0.00396551 5.96937 0.00390625 6.23585H0.00390625ZM8.00391 18.6667L16.0039 21.3334V5.33335L8.00391 2.66669V18.6667ZM23.0897 2.71502L17.3372 5.33335V21.3334L23.1656 19.0021C23.413 18.9032 23.6252 18.7324 23.7746 18.5117C23.924 18.2911 24.0039 18.0307 24.0039 17.7642V3.33419C24.0039 2.86252 23.5277 2.54002 23.0897 2.71502Z" fill="#0A4D1E" fill-opacity="0.99"/>
</g>
<defs>
<clipPath id="clip0_38_290">
<rect width="24" height="24" fill="white" transform="translate(0.00390625)"/>
</clipPath>
</defs>
</svg>
