<svg width="16" height="21" viewBox="0 0 16 21" fill="none" xmlns="http://www.w3.org/2000/svg">
<path d="M15.8086 10.4922L15.3047 16.6367C15.1758 18.2266 12.8086 18.0078 12.9375 16.4453L13.3281 11.6602L11.7227 11.75C12.1172 12.5586 12.3398 13.4648 12.3398 14.4258C12.3398 16.0352 11.7109 17.5 10.6875 18.5859L9.15234 17.0508C11.4141 14.5625 9.66406 10.5195 6.26172 10.5195C5.25 10.5195 4.32812 10.9062 3.63672 11.5352L2.10156 10C2.96094 9.19141 4.05859 8.62891 5.28125 8.42969L8.22266 5.08203L6.55859 4.11328L4.54297 5.91016C3.37109 6.95703 1.78516 5.1875 2.96094 4.13672L5.61719 1.76562C6 1.42188 6.55859 1.36719 7.00391 1.625C7.00391 1.625 12.4453 4.78516 12.4531 4.79297C13.0859 5.1875 13.2617 6.19922 12.6914 6.84766L10.4102 9.44531L14.5547 9.21484C15.2773 9.17188 15.8672 9.77734 15.8086 10.4922ZM13.2734 4.47656C14.3711 4.47656 15.2617 3.58594 15.2617 2.48828C15.2617 1.39063 14.3711 0.5 13.2734 0.5C12.1758 0.5 11.2852 1.39063 11.2852 2.48828C11.2852 3.58594 12.1758 4.47656 13.2734 4.47656ZM6.26562 18.332C3.11719 18.332 1.28906 14.793 3.03516 12.2344L1.48438 10.6836C0.671875 11.7109 0.1875 13.0117 0.1875 14.4219C0.1875 19.5273 6.07422 22.2891 10.0078 19.207L8.45703 17.6562C7.83203 18.082 7.07812 18.332 6.26562 18.332Z" fill="#0A4D1E" fill-opacity="0.99"/>
</svg>
