<svg width="20" height="20" viewBox="0 0 20 20" fill="none" xmlns="http://www.w3.org/2000/svg">
<path d="M19.4293 14.1331L15.0543 12.2581C14.8674 12.1784 14.6597 12.1616 14.4624 12.2102C14.2652 12.2589 14.089 12.3702 13.9605 12.5276L12.023 14.8948C8.98232 13.4611 6.53524 11.014 5.10156 7.9733L7.46875 6.0358C7.62644 5.90755 7.73804 5.73142 7.78668 5.53407C7.83531 5.33671 7.81832 5.12889 7.73828 4.94205L5.86328 0.567053C5.77543 0.36565 5.62007 0.201211 5.42397 0.102092C5.22787 0.00297174 5.00332 -0.0246164 4.78906 0.0240843L0.726562 0.961584C0.519988 1.00929 0.335682 1.1256 0.203725 1.29154C0.0717677 1.45748 -4.75863e-05 1.66325 2.36571e-08 1.87526C2.36571e-08 11.8948 8.12109 20.0003 18.125 20.0003C18.3371 20.0004 18.5429 19.9286 18.709 19.7967C18.875 19.6647 18.9913 19.4803 19.0391 19.2737L19.9766 15.2112C20.025 14.9959 19.9968 14.7705 19.8969 14.5737C19.797 14.3769 19.6317 14.2211 19.4293 14.1331Z" fill="#0A4D1E" fill-opacity="0.99"/>
</svg>
