<svg width="16" height="17" viewBox="0 0 16 17" fill="none" xmlns="http://www.w3.org/2000/svg">
<path d="M15.5434 11.8064L12.0434 10.3064C11.8939 10.2427 11.7277 10.2293 11.5699 10.2682C11.4121 10.307 11.2712 10.3961 11.1684 10.522L9.61844 12.4158C7.18586 11.2688 5.22819 9.31118 4.08125 6.8786L5.975 5.3286C6.10115 5.226 6.19044 5.08509 6.22934 4.92721C6.26825 4.76932 6.25466 4.60306 6.19063 4.4536L4.69063 0.953597C4.62035 0.792474 4.49605 0.660923 4.33917 0.581627C4.18229 0.502332 4.00266 0.480261 3.83125 0.519222L0.58125 1.26922C0.41599 1.30738 0.268545 1.40043 0.16298 1.53319C0.0574141 1.66594 -3.80691e-05 1.83055 1.89256e-08 2.00016C1.89256e-08 10.0158 6.49687 16.5002 14.5 16.5002C14.6697 16.5003 14.8343 16.4428 14.9672 16.3373C15.1 16.2317 15.1931 16.0842 15.2312 15.9189L15.9812 12.6689C16.02 12.4967 15.9974 12.3163 15.9175 12.1589C15.8376 12.0015 15.7053 11.8768 15.5434 11.8064Z" fill="white"/>
</svg>
