<svg width="20" height="21" viewBox="0 0 20 21" fill="none" xmlns="http://www.w3.org/2000/svg">
<path d="M3.75 12.375C3.75 12.7188 4.03125 13 4.375 13H8.96484L5.21484 9.25H4.375C4.03125 9.25 3.75 9.53125 3.75 9.875V12.375ZM10 0.5C4.47656 0.5 0 4.97656 0 10.5C0 16.0234 4.47656 20.5 10 20.5C15.5234 20.5 20 16.0234 20 10.5C20 4.97656 15.5234 0.5 10 0.5ZM10 18C5.86328 18 2.5 14.6367 2.5 10.5C2.5 8.88281 3.01953 7.38672 3.89453 6.16016L14.3398 16.6055C13.1133 17.4805 11.6172 18 10 18ZM11.7656 10.5H15V11.75H13.0156L11.7656 10.5ZM16.1055 14.8398L14.2656 13H15.625C15.9688 13 16.25 12.7188 16.25 12.375V9.875C16.25 9.53125 15.9688 9.25 15.625 9.25H10.5156L5.66016 4.39453C6.88672 3.51953 8.38281 3 10 3C14.1367 3 17.5 6.36328 17.5 10.5C17.5 12.1172 16.9805 13.6133 16.1055 14.8398ZM12.5234 5.5C11.9141 5.5 11.4062 5.0625 11.2969 4.48828C11.2695 4.34766 11.1406 4.25 10.9961 4.25H10.3633C10.168 4.25 10.0234 4.42578 10.0508 4.61719C10.2305 5.82422 11.2695 6.75 12.5234 6.75C13.1328 6.75 13.6406 7.1875 13.75 7.76172C13.7773 7.90234 13.9062 8 14.0508 8H14.6836C14.8789 8 15.0234 7.82422 14.9961 7.63281C14.8164 6.42578 13.7773 5.5 12.5234 5.5Z" fill="#0A4D1E" fill-opacity="0.99"/>
</svg>
