<svg width="20" height="18" viewBox="0 0 20 18" fill="none" xmlns="http://www.w3.org/2000/svg">
<path d="M17.9441 4.92662C17.9568 5.10428 17.9568 5.28197 17.9568 5.45963C17.9568 10.8784 13.8325 17.122 6.29441 17.122C3.97207 17.122 1.81473 16.4494 0 15.282C0.329961 15.32 0.647187 15.3327 0.989844 15.3327C2.90605 15.3327 4.67004 14.6855 6.07867 13.5815C4.27664 13.5434 2.76648 12.3632 2.24617 10.7388C2.5 10.7769 2.75379 10.8022 3.02031 10.8022C3.38832 10.8022 3.75637 10.7515 4.09898 10.6627C2.22082 10.2819 0.812148 8.63221 0.812148 6.63982V6.58908C1.35781 6.89365 1.99238 7.084 2.66492 7.10935C1.56086 6.3733 0.837539 5.11697 0.837539 3.69564C0.837539 2.93424 1.04055 2.23627 1.3959 1.62713C3.41367 4.11443 6.44668 5.73877 9.84766 5.91646C9.78422 5.61189 9.74613 5.29467 9.74613 4.9774C9.74613 2.7185 11.5736 0.878418 13.8451 0.878418C15.0253 0.878418 16.0913 1.37334 16.84 2.17283C17.7664 1.99518 18.6547 1.65252 19.4416 1.18299C19.137 2.13479 18.4898 2.93428 17.6395 3.44186C18.4644 3.35307 19.2639 3.12459 19.9999 2.80736C19.4416 3.61951 18.7436 4.34283 17.9441 4.92662Z" fill="white"/>
</svg>
