<svg width="16" height="21" viewBox="0 0 16 21" fill="none" xmlns="http://www.w3.org/2000/svg">
<path d="M15.5 12.7148C13.3477 18.0547 8.19144 14.8242 8.19144 14.8242C6.6094 18.0195 3.99612 20.0742 0.980497 20.0859C0.35159 20.0859 0.332059 19.1328 0.980497 19.1328C3.49612 19.1211 5.68753 17.4648 7.12112 14.832C5.51565 15.4531 2.48831 15.9219 0.808622 11.6211C5.06644 9.86719 7.02347 12.0586 7.77347 13.3984C8.16019 12.4453 8.43753 11.4102 8.61722 10.2852C8.61722 10.2852 3.16018 11.1406 2.77737 6.45312C7.42972 4.58203 8.73831 9.44922 8.73831 9.44922C8.80081 8.79688 8.86722 7.39453 8.86722 7.36328C8.86722 7.36328 4.71487 4.48438 7.37894 0.910156C12.2461 2.58984 9.77737 7.25391 9.77737 7.25391C9.7969 7.31641 9.7969 8.18359 9.77737 8.55859C9.77737 8.55859 11.543 5.08203 15.1055 6.3125C14.9414 11.5469 9.56253 10.4688 9.56253 10.4688C9.39065 11.5391 9.12503 12.5547 8.78128 13.4961C8.78128 13.4961 12.0235 9.91016 15.5 12.7148Z" fill="#0A4D1E" fill-opacity="0.99"/>
</svg>
