<svg width="32" height="24" viewBox="0 0 32 24" fill="none" xmlns="http://www.w3.org/2000/svg">
<path d="M9.6 12C12.695 12 15.2 9.49505 15.2 6.40005C15.2 3.30505 12.695 0.800049 9.6 0.800049C6.505 0.800049 4 3.30505 4 6.40005C4 9.49505 6.505 12 9.6 12ZM13.44 13.6H13.025C11.985 14.1 10.83 14.4001 9.6 14.4001C8.37 14.4001 7.22 14.1 6.175 13.6H5.76C2.58 13.6 0 16.1801 0 19.3601V20.8001C0 22.1251 1.075 23.2001 2.4 23.2001H16.8C18.125 23.2001 19.2 22.1251 19.2 20.8001V19.3601C19.2 16.1801 16.62 13.6 13.44 13.6ZM24 12C26.65 12 28.8 9.85005 28.8 7.20005C28.8 4.55005 26.65 2.40005 24 2.40005C21.35 2.40005 19.2 4.55005 19.2 7.20005C19.2 9.85005 21.35 12 24 12ZM26.4 13.6H26.21C25.515 13.84 24.78 14 24 14C23.22 14 22.485 13.84 21.79 13.6H21.6C20.58 13.6 19.64 13.8951 18.815 14.37C20.035 15.6851 20.8 17.4301 20.8 19.3601V21.2801C20.8 21.3901 20.775 21.4951 20.77 21.6H29.6C30.925 21.6 32 20.5251 32 19.2001C32 16.1051 29.495 13.6 26.4 13.6Z" fill="#E27637"/>
</svg>
