<svg width="32" height="32" viewBox="0 0 32 32" fill="none" xmlns="http://www.w3.org/2000/svg">
<path d="M27.2 14.4C25.435 14.4 24 12.965 24 11.2C24 9.43505 25.435 8.00005 27.2 8.00005C28.965 8.00005 30.4 9.43505 30.4 11.2C30.4 12.965 28.965 14.4 27.2 14.4ZM4.8 14.4C3.035 14.4 1.6 12.965 1.6 11.2C1.6 9.43505 3.035 8.00005 4.8 8.00005C6.565 8.00005 8 9.43505 8 11.2C8 12.965 6.565 14.4 4.8 14.4ZM3.2 16H6.4C7.28 16 8.075 16.3551 8.655 16.93C6.64 18.0351 5.21 20.0301 4.9 22.4001H1.6C0.715 22.4001 0 21.6851 0 20.8001V19.2001C0 17.4351 1.435 16 3.2 16ZM16 16C12.905 16 10.4 13.495 10.4 10.4C10.4 7.30505 12.905 4.80005 16 4.80005C19.095 4.80005 21.6 7.30505 21.6 10.4C21.6 13.495 19.095 16 16 16ZM12.16 17.6H12.575C13.615 18.1 14.77 18.4001 16 18.4001C17.23 18.4001 18.38 18.1 19.425 17.6H19.84C23.02 17.6 25.6 20.1801 25.6 23.3601V24.8001C25.6 26.1251 24.525 27.2001 23.2 27.2001H8.8C7.475 27.2001 6.4 26.1251 6.4 24.8001V23.3601C6.4 20.1801 8.98 17.6 12.16 17.6ZM23.345 16.93C23.925 16.3551 24.72 16 25.6 16H28.8C30.565 16 32 17.4351 32 19.2001V20.8001C32 21.6851 31.285 22.4001 30.4 22.4001H27.105C26.79 20.0301 25.36 18.0351 23.345 16.93Z" fill="#E27637"/>
</svg>
