<svg width="32" height="32" viewBox="0 0 32 32" fill="none" xmlns="http://www.w3.org/2000/svg">
<path d="M9.6 16C12.695 16 15.2 13.495 15.2 10.4C15.2 7.30505 12.695 4.80005 9.6 4.80005C6.505 4.80005 4 7.30505 4 10.4C4 13.495 6.505 16 9.6 16ZM13.44 17.6H13.025C11.985 18.1 10.83 18.4001 9.6 18.4001C8.37 18.4001 7.22 18.1 6.175 17.6H5.76C2.58 17.6 0 20.1801 0 23.3601V24.8001C0 26.1251 1.075 27.2001 2.4 27.2001H16.8C18.125 27.2001 19.2 26.1251 19.2 24.8001V23.3601C19.2 20.1801 16.62 17.6 13.44 17.6ZM24 16C26.65 16 28.8 13.85 28.8 11.2C28.8 8.55005 26.65 6.40005 24 6.40005C21.35 6.40005 19.2 8.55005 19.2 11.2C19.2 13.85 21.35 16 24 16ZM26.4 17.6H26.21C25.515 17.84 24.78 18 24 18C23.22 18 22.485 17.84 21.79 17.6H21.6C20.58 17.6 19.64 17.8951 18.815 18.37C20.035 19.6851 20.8 21.4301 20.8 23.3601V25.2801C20.8 25.3901 20.775 25.4951 20.77 25.6H29.6C30.925 25.6 32 24.5251 32 23.2001C32 20.1051 29.495 17.6 26.4 17.6Z" fill="#E27637"/>
</svg>
