<svg width="20" height="20" viewBox="0 0 20 20" fill="none" xmlns="http://www.w3.org/2000/svg">
<path d="M10.0039 0.3125C4.65234 0.3125 0.316406 4.64844 0.316406 10C0.316406 15.3516 4.65234 19.6875 10.0039 19.6875C15.3555 19.6875 19.6914 15.3516 19.6914 10C19.6914 4.64844 15.3555 0.3125 10.0039 0.3125ZM12.2344 13.9883L8.78906 11.4844C8.66797 11.3945 8.59766 11.2539 8.59766 11.1055V4.53125C8.59766 4.27344 8.80859 4.0625 9.06641 4.0625H10.9414C11.1992 4.0625 11.4102 4.27344 11.4102 4.53125V9.91016L13.8906 11.7148C14.1016 11.8672 14.1445 12.1602 13.9922 12.3711L12.8906 13.8867C12.7383 14.0938 12.4453 14.1406 12.2344 13.9883Z" fill="#0A4D1E" fill-opacity="0.99"/>
</svg>
