<svg width="72" height="72" viewBox="0 0 72 72" fill="none" xmlns="http://www.w3.org/2000/svg">
<rect width="72" height="72" fill="#0A4D1E" fill-opacity="0.99"/>
<g clip-path="url(#clip0_424_4971)">
<path d="M39.2969 28.2344C35.1797 26.2266 30.3516 27.4141 27.5625 30.7969L31.875 35.1094C32.3672 35.6016 32.3672 36.3906 31.875 36.875C31.6329 37.1172 31.3125 37.2422 30.9922 37.2422C30.6719 37.2422 30.3516 37.1172 30.1094 36.875L26.1875 32.9531L16.1797 53.4766C15.9532 53.9453 15.9375 54.5156 16.1797 55.0156C16.6016 55.8828 17.6563 56.2422 18.5235 55.8203L28.961 50.7266L25.1172 46.8828C24.625 46.3984 24.625 45.6016 25.1172 45.1172C25.6094 44.6328 26.3985 44.6328 26.8829 45.1172L31.336 49.5703L39.3047 45.6797C41.1797 44.7656 42.7813 43.2344 43.7657 41.2188C46.1172 36.3984 44.1172 30.5859 39.2969 28.2344ZM46.4922 25.5078C48.0157 22.3281 47.2266 18.5703 44.125 16C40.1954 19.2578 40.0235 24.3984 43.5079 27.8672L44.1329 28.4922C47.6016 31.9766 52.75 31.8047 56 27.875C53.4297 24.7734 49.6719 23.9844 46.4922 25.5078Z" fill="#FCC044"/>
</g>
<defs>
<clipPath id="clip0_424_4971">
<rect width="40" height="40" fill="white" transform="translate(16 16)"/>
</clipPath>
</defs>
</svg>
