<svg width="72" height="72" viewBox="0 0 72 72" fill="none" xmlns="http://www.w3.org/2000/svg">
<rect width="72" height="72" fill="#0A4D1E" fill-opacity="0.99"/>
<path d="M41.0929 34.2344L32.6554 31.7656C31.6788 31.4844 30.9991 30.5703 30.9991 29.5547C30.9991 28.2812 32.0304 27.25 33.3038 27.25H38.4835C39.4366 27.25 40.3741 27.5391 41.1554 28.0703C41.6319 28.3906 42.2725 28.3125 42.6788 27.9141L45.3975 25.2578C45.9522 24.7188 45.8741 23.8203 45.2569 23.3438C43.3429 21.8438 40.9522 21.0078 38.4991 21V17.25C38.4991 16.5625 37.9366 16 37.2491 16H34.7491C34.0616 16 33.4991 16.5625 33.4991 17.25V21H33.3038C28.3272 21 24.3272 25.2734 24.7882 30.3438C25.1163 33.9453 27.8663 36.875 31.335 37.8906L39.3429 40.2344C40.3194 40.5234 40.9991 41.4297 40.9991 42.4453C40.9991 43.7188 39.9679 44.75 38.6944 44.75H33.5147C32.5616 44.75 31.6241 44.4609 30.8429 43.9297C30.3663 43.6094 29.7257 43.6875 29.3194 44.0859L26.6007 46.7422C26.046 47.2812 26.1241 48.1797 26.7413 48.6562C28.6554 50.1562 31.046 50.9922 33.4991 51V54.75C33.4991 55.4375 34.0616 56 34.7491 56H37.2491C37.9366 56 38.4991 55.4375 38.4991 54.75V50.9844C42.1397 50.9141 45.5538 48.75 46.7569 45.3047C48.4366 40.4922 45.6163 35.5547 41.0929 34.2344Z" fill="#FCC044"/>
</svg>
