<svg width="17" height="13" viewBox="0 0 17 13" fill="none" xmlns="http://www.w3.org/2000/svg">
<path d="M8.28847 3.50723L3.16708 7.72529V12.2778C3.16708 12.3957 3.21391 12.5087 3.29726 12.5921C3.38061 12.6754 3.49365 12.7222 3.61153 12.7222L6.7243 12.7142C6.84179 12.7136 6.95427 12.6665 7.03714 12.5832C7.12001 12.4999 7.16653 12.3872 7.16653 12.2697V9.61112C7.16653 9.49324 7.21335 9.3802 7.2967 9.29685C7.38005 9.2135 7.4931 9.16667 7.61097 9.16667H9.38875C9.50662 9.16667 9.61967 9.2135 9.70302 9.29685C9.78637 9.3802 9.83319 9.49324 9.83319 9.61112V12.2678C9.83301 12.3263 9.84437 12.3842 9.86662 12.4383C9.88888 12.4924 9.92159 12.5415 9.96288 12.583C10.0042 12.6244 10.0532 12.6572 10.1072 12.6797C10.1612 12.7021 10.2192 12.7136 10.2776 12.7136L13.3893 12.7222C13.5072 12.7222 13.6202 12.6754 13.7036 12.5921C13.7869 12.5087 13.8337 12.3957 13.8337 12.2778V7.72223L8.71347 3.50723C8.65328 3.45871 8.57829 3.43225 8.50097 3.43225C8.42365 3.43225 8.34867 3.45871 8.28847 3.50723ZM16.3782 6.37417L14.056 4.46001V0.612508C14.056 0.524103 14.0209 0.439318 13.9583 0.376806C13.8958 0.314294 13.811 0.279175 13.7226 0.279175H12.1671C12.0787 0.279175 11.9939 0.314294 11.9314 0.376806C11.8689 0.439318 11.8337 0.524103 11.8337 0.612508V2.62945L9.3468 0.583341C9.10814 0.386947 8.80866 0.279567 8.49958 0.279567C8.1905 0.279567 7.89102 0.386947 7.65236 0.583341L0.620972 6.37417C0.587218 6.40207 0.559293 6.43635 0.538791 6.47504C0.518288 6.51374 0.505611 6.55609 0.501484 6.59969C0.497357 6.64328 0.50186 6.68726 0.514736 6.72912C0.527612 6.77097 0.548609 6.80988 0.576527 6.84362L1.28486 7.70473C1.3127 7.73858 1.34695 7.76662 1.38564 7.78722C1.42433 7.80782 1.4667 7.82059 1.51033 7.8248C1.55396 7.829 1.59799 7.82456 1.63991 7.81173C1.68182 7.79889 1.72079 7.77792 1.75458 7.75001L8.28847 2.36834C8.34867 2.31982 8.42365 2.29336 8.50097 2.29336C8.57829 2.29336 8.65328 2.31982 8.71347 2.36834L15.2476 7.75001C15.2814 7.77793 15.3203 7.79892 15.3621 7.8118C15.404 7.82468 15.448 7.82918 15.4916 7.82505C15.5352 7.82092 15.5775 7.80825 15.6162 7.78774C15.6549 7.76724 15.6892 7.73932 15.7171 7.70556L16.4254 6.84445C16.4533 6.81052 16.4742 6.77141 16.4869 6.72937C16.4997 6.68734 16.504 6.6432 16.4996 6.5995C16.4952 6.55579 16.4822 6.51339 16.4614 6.47472C16.4405 6.43605 16.4123 6.40188 16.3782 6.37417Z" fill="#0A4D1E" fill-opacity="0.99"/>
</svg>
